<svg width="18" height="18" viewBox="0 0 18 18" fill="none" xmlns="http://www.w3.org/2000/svg">
<path d="M16.148 7.71078L12.773 11.0858C12.6674 11.1913 12.5243 11.2506 12.375 11.2506C12.2257 11.2506 12.0826 11.1913 11.977 11.0858C11.8715 10.9802 11.8122 10.8371 11.8122 10.6878C11.8122 10.5385 11.8715 10.3954 11.977 10.2898L14.3923 7.87531H9C7.35954 7.87717 5.78681 8.52967 4.62683 9.68964C3.46685 10.8496 2.81436 12.4224 2.8125 14.0628C2.8125 14.212 2.75324 14.3551 2.64775 14.4606C2.54226 14.5661 2.39918 14.6253 2.25 14.6253C2.10082 14.6253 1.95774 14.5661 1.85225 14.4606C1.74676 14.3551 1.6875 14.212 1.6875 14.0628C1.68955 12.124 2.46063 10.2653 3.83154 8.89436C5.20246 7.52344 7.06123 6.75236 9 6.75031H14.3923L11.977 4.33578C11.9248 4.28352 11.8833 4.22148 11.855 4.15319C11.8267 4.08491 11.8122 4.01172 11.8122 3.93781C11.8122 3.8639 11.8267 3.79072 11.855 3.72243C11.8833 3.65415 11.9248 3.59211 11.977 3.53984C12.0826 3.4343 12.2257 3.375 12.375 3.375C12.4489 3.375 12.5221 3.38956 12.5904 3.41784C12.6587 3.44613 12.7207 3.48758 12.773 3.53984L16.148 6.91484C16.2003 6.96708 16.2418 7.02912 16.2701 7.09741C16.2984 7.1657 16.3129 7.23889 16.3129 7.31281C16.3129 7.38673 16.2984 7.45993 16.2701 7.52822C16.2418 7.5965 16.2003 7.65854 16.148 7.71078Z" fill="white"/>
</svg>
