<svg width="18" height="18" viewBox="0 0 18 18" fill="none" xmlns="http://www.w3.org/2000/svg">
<path d="M14.4605 12.773L11.0855 16.148C11.0332 16.2003 10.9712 16.2418 10.9029 16.2701C10.8346 16.2984 10.7614 16.3129 10.6875 16.3129C10.6136 16.3129 10.5404 16.2984 10.4721 16.2701C10.4038 16.2418 10.3418 16.2003 10.2895 16.148L6.91453 12.773C6.80898 12.6674 6.74969 12.5243 6.74969 12.375C6.74969 12.2257 6.80898 12.0826 6.91453 11.977C7.02008 11.8715 7.16323 11.8122 7.3125 11.8122C7.46177 11.8122 7.60492 11.8715 7.71047 11.977L10.125 14.3923V9C10.1231 7.35954 9.47065 5.78681 8.31067 4.62683C7.15069 3.46685 5.57796 2.81436 3.9375 2.8125C3.78832 2.8125 3.64524 2.75324 3.53975 2.64775C3.43426 2.54226 3.375 2.39918 3.375 2.25C3.375 2.10082 3.43426 1.95774 3.53975 1.85225C3.64524 1.74676 3.78832 1.6875 3.9375 1.6875C5.87627 1.68955 7.73504 2.46063 9.10596 3.83154C10.4769 5.20246 11.248 7.06123 11.25 9V14.3923L13.6645 11.977C13.7701 11.8715 13.9132 11.8122 14.0625 11.8122C14.2118 11.8122 14.3549 11.8715 14.4605 11.977C14.566 12.0826 14.6253 12.2257 14.6253 12.375C14.6253 12.5243 14.566 12.6674 14.4605 12.773Z" fill="#231208"/>
</svg>
