<svg width="19" height="19" viewBox="0 0 19 19" fill="none" xmlns="http://www.w3.org/2000/svg">
<path d="M15.3106 6.59812L11.3731 2.66063C11.3208 2.60841 11.2587 2.567 11.1905 2.53877C11.1222 2.51054 11.049 2.49604 10.9751 2.49609H4.2251C3.92673 2.49609 3.64058 2.61462 3.4296 2.8256C3.21862 3.03658 3.1001 3.32273 3.1001 3.62109V15.9961C3.1001 16.2945 3.21862 16.5806 3.4296 16.7916C3.64058 17.0026 3.92673 17.1211 4.2251 17.1211H14.3501C14.6485 17.1211 14.9346 17.0026 15.1456 16.7916C15.3566 16.5806 15.4751 16.2945 15.4751 15.9961V6.99609C15.4752 6.9222 15.4607 6.84903 15.4324 6.78074C15.4042 6.71246 15.3628 6.6504 15.3106 6.59812ZM11.5376 4.41633L13.5549 6.43359H11.5376V4.41633ZM14.3501 15.9961H4.2251V3.62109H10.4126V6.99609C10.4126 7.14528 10.4719 7.28835 10.5773 7.39384C10.6828 7.49933 10.8259 7.55859 10.9751 7.55859H14.3501V15.9961ZM11.3731 11.6606C11.4254 11.7129 11.4669 11.7749 11.4952 11.8432C11.5235 11.9115 11.538 11.9847 11.538 12.0586C11.538 12.1325 11.5235 12.2057 11.4952 12.274C11.4669 12.3423 11.4254 12.4043 11.3731 12.4566L9.68557 14.1441C9.63333 14.1964 9.57129 14.2379 9.503 14.2662C9.43472 14.2945 9.36152 14.309 9.2876 14.309C9.21368 14.309 9.14048 14.2945 9.07219 14.2662C9.00391 14.2379 8.94187 14.1964 8.88963 14.1441L7.20213 12.4566C7.09658 12.351 7.03728 12.2079 7.03728 12.0586C7.03728 11.9093 7.09658 11.7662 7.20213 11.6606C7.30768 11.5551 7.45083 11.4958 7.6001 11.4958C7.74936 11.4958 7.89252 11.5551 7.99807 11.6606L8.7251 12.3884V9.24609C8.7251 9.09691 8.78436 8.95384 8.88985 8.84835C8.99534 8.74286 9.13841 8.68359 9.2876 8.68359C9.43678 8.68359 9.57986 8.74286 9.68535 8.84835C9.79083 8.95384 9.8501 9.09691 9.8501 9.24609V12.3884L10.5771 11.6606C10.6294 11.6083 10.6914 11.5668 10.7597 11.5385C10.828 11.5102 10.9012 11.4957 10.9751 11.4957C11.049 11.4957 11.1222 11.5102 11.1905 11.5385C11.2588 11.5668 11.3208 11.6083 11.3731 11.6606Z" fill="#231208"/>
</svg>
