<svg width="25" height="24" viewBox="0 0 25 24" fill="none" xmlns="http://www.w3.org/2000/svg">
<path d="M12.5 2.25C10.5716 2.25 8.68657 2.82183 7.08319 3.89317C5.47982 4.96451 4.23013 6.48726 3.49218 8.26884C2.75422 10.0504 2.56114 12.0108 2.93735 13.9021C3.31355 15.7934 4.24215 17.5307 5.60571 18.8943C6.96928 20.2579 8.70656 21.1865 10.5979 21.5627C12.4892 21.9389 14.4496 21.7458 16.2312 21.0078C18.0127 20.2699 19.5355 19.0202 20.6068 17.4168C21.6782 15.8134 22.25 13.9284 22.25 12C22.2473 9.41498 21.2192 6.93661 19.3913 5.10872C17.5634 3.28084 15.085 2.25273 12.5 2.25ZM13.25 20.2153V14.25H15.5C15.6989 14.25 15.8897 14.171 16.0303 14.0303C16.171 13.8897 16.25 13.6989 16.25 13.5C16.25 13.3011 16.171 13.1103 16.0303 12.9697C15.8897 12.829 15.6989 12.75 15.5 12.75H13.25V10.5C13.25 10.1022 13.408 9.72064 13.6893 9.43934C13.9706 9.15804 14.3522 9 14.75 9H16.25C16.4489 9 16.6397 8.92098 16.7803 8.78033C16.921 8.63968 17 8.44891 17 8.25C17 8.05109 16.921 7.86032 16.7803 7.71967C16.6397 7.57902 16.4489 7.5 16.25 7.5H14.75C13.9544 7.5 13.1913 7.81607 12.6287 8.37868C12.0661 8.94129 11.75 9.70435 11.75 10.5V12.75H9.5C9.30109 12.75 9.11033 12.829 8.96967 12.9697C8.82902 13.1103 8.75 13.3011 8.75 13.5C8.75 13.6989 8.82902 13.8897 8.96967 14.0303C9.11033 14.171 9.30109 14.25 9.5 14.25H11.75V20.2153C9.63575 20.0223 7.67728 19.0217 6.28198 17.4215C4.88667 15.8214 4.16195 13.7449 4.25855 11.6241C4.35515 9.50324 5.26564 7.50127 6.80064 6.0346C8.33563 4.56793 10.377 3.74947 12.5 3.74947C14.6231 3.74947 16.6644 4.56793 18.1994 6.0346C19.7344 7.50127 20.6449 9.50324 20.7415 11.6241C20.8381 13.7449 20.1133 15.8214 18.718 17.4215C17.3227 19.0217 15.3643 20.0223 13.25 20.2153Z" fill="#231208"/>
</svg>
