<svg width="33" height="32" viewBox="0 0 33 32" fill="none" xmlns="http://www.w3.org/2000/svg">
<path d="M23.9474 18.105L19.9474 16.105C19.79 16.0265 19.6146 15.991 19.439 16.002C19.2634 16.0129 19.0939 16.07 18.9474 16.1675L17.1112 17.3925C16.2682 16.9291 15.5745 16.2354 15.1112 15.3925L16.3362 13.5562C16.4336 13.4098 16.4907 13.2402 16.5017 13.0646C16.5127 12.8891 16.4771 12.7137 16.3987 12.5562L14.3987 8.55625C14.3158 8.38884 14.1876 8.248 14.0288 8.14968C13.8699 8.05137 13.6867 7.99952 13.4999 8C12.1738 8 10.9021 8.52678 9.96437 9.46447C9.02669 10.4021 8.49991 11.6739 8.49991 13C8.50322 15.9164 9.6632 18.7123 11.7254 20.7745C13.7876 22.8367 16.5835 23.9967 19.4999 24C20.1565 24 20.8067 23.8707 21.4133 23.6194C22.02 23.3681 22.5711 22.9998 23.0354 22.5355C23.4997 22.0712 23.868 21.52 24.1193 20.9134C24.3706 20.3068 24.4999 19.6566 24.4999 19C24.5 18.8142 24.4484 18.6321 24.3508 18.474C24.2532 18.3159 24.1135 18.1881 23.9474 18.105ZM19.4999 22C17.1138 21.9974 14.8261 21.0483 13.1389 19.361C11.4516 17.6738 10.5026 15.3861 10.4999 13C10.4997 12.3064 10.7399 11.6342 11.1795 11.0977C11.6191 10.5612 12.231 10.1936 12.9112 10.0575L14.3462 12.9325L13.1249 14.75C13.0336 14.8869 12.9776 15.0442 12.9617 15.2079C12.9457 15.3717 12.9705 15.5368 13.0337 15.6888C13.7491 17.3892 15.1019 18.742 16.8024 19.4575C16.9548 19.5235 17.1212 19.5505 17.2866 19.5361C17.452 19.5217 17.6112 19.4663 17.7499 19.375L19.5762 18.1575L22.4512 19.5925C22.314 20.2734 21.9448 20.8856 21.4066 21.3247C20.8684 21.7637 20.1945 22.0024 19.4999 22ZM16.4999 3C14.2555 2.99951 12.0492 3.58011 10.0957 4.68529C8.14227 5.79046 6.50822 7.38256 5.35262 9.30662C4.19703 11.2307 3.55926 13.4212 3.50139 15.6648C3.44353 17.9085 3.96753 20.1289 5.02241 22.11L3.60366 26.3662C3.48614 26.7186 3.46908 27.0968 3.55441 27.4583C3.63973 27.8199 3.82405 28.1505 4.08672 28.4132C4.34939 28.6759 4.68003 28.8602 5.04157 28.9455C5.40311 29.0308 5.78127 29.0138 6.13366 28.8962L10.3899 27.4775C12.1334 28.4048 14.0652 28.9228 16.0387 28.992C18.0122 29.0613 19.9756 28.68 21.7797 27.8772C23.5839 27.0743 25.1815 25.871 26.4512 24.3586C27.7209 22.8462 28.6293 21.0644 29.1076 19.1484C29.5858 17.2325 29.6213 15.2328 29.2113 13.301C28.8013 11.3693 27.9567 9.55642 26.7414 7.9999C25.5262 6.44337 23.9723 5.18415 22.1978 4.31782C20.4232 3.45149 18.4746 3.00081 16.4999 3ZM16.4999 27C14.5661 27.0013 12.6663 26.4921 10.9924 25.5238C10.8699 25.4527 10.7336 25.4085 10.5927 25.394C10.4517 25.3796 10.3093 25.3953 10.1749 25.44L5.49991 27L7.05866 22.325C7.10359 22.1907 7.11947 22.0483 7.10525 21.9074C7.09103 21.7665 7.04702 21.6301 6.97616 21.5075C5.76362 19.4111 5.27679 16.9732 5.59119 14.572C5.90559 12.1707 7.00365 9.94027 8.71502 8.22674C10.4264 6.51321 12.6554 5.41234 15.0563 5.0949C17.4572 4.77747 19.8957 5.26122 21.9936 6.47111C24.0915 7.68099 25.7314 9.54939 26.6591 11.7864C27.5868 14.0235 27.7503 16.5042 27.1242 18.8436C26.4981 21.1831 25.1176 23.2505 23.1966 24.7253C21.2756 26.2 18.9217 26.9996 16.4999 27Z" fill="black"/>
</svg>
